<svg xmlns="http://www.w3.org/2000/svg" width="20.262" height="23.639" viewBox="0 0 20.262 23.639">
  <path id="Path_130089" data-name="Path 130089" d="M17.729,23.639H2.533A2.535,2.535,0,0,1,0,21.106V2.533A2.535,2.535,0,0,1,2.533,0h15.2a2.535,2.535,0,0,1,2.533,2.533V21.106A2.535,2.535,0,0,1,17.729,23.639ZM14.112,8.863a.708.708,0,0,0-.663.663V21.469a.708.708,0,0,0,.663.663H16.1a.708.708,0,0,0,.663-.663V9.526a.708.708,0,0,0-.663-.663ZM9.136,13.839a.708.708,0,0,0-.663.663v6.966a.708.708,0,0,0,.663.663h1.991a.708.708,0,0,0,.663-.663V14.5a.708.708,0,0,0-.663-.663ZM4.16,10.522a.718.718,0,0,0-.663.663V21.469a.708.708,0,0,0,.663.663H6.151a.708.708,0,0,0,.663-.663V11.185a.718.718,0,0,0-.663-.663Z" fill="#0174B1"/>
</svg>
