<svg xmlns="http://www.w3.org/2000/svg" width="25" height="20" viewBox="0 0 25 20">
  <path id="Path_130080" data-name="Path 130080" d="M19.062-10H13.125v2.187A2.816,2.816,0,0,1,10.312-5,2.816,2.816,0,0,1,7.5-7.812v-4.75L4.965-11.039A2.5,2.5,0,0,0,3.75-8.9v1.848L.625-5.246A1.247,1.247,0,0,0,.168-3.539L3.293,1.875A1.25,1.25,0,0,0,5,2.332L9.039,0h5.336a2.5,2.5,0,0,0,2.5-2.5H17.5a1.249,1.249,0,0,0,1.25-1.25v-2.5h.313A.935.935,0,0,0,20-7.187V-9.062A.935.935,0,0,0,19.062-10Zm5.77-1.461-3.125-5.414A1.25,1.25,0,0,0,20-17.332L15.961-15H11.969a2.519,2.519,0,0,0-1.324.379L9.336-13.8a1.242,1.242,0,0,0-.586,1.059v4.934A1.562,1.562,0,0,0,10.312-6.25a1.562,1.562,0,0,0,1.562-1.562V-11.25h7.187A2.189,2.189,0,0,1,21.25-9.062v1.113l3.125-1.8A1.251,1.251,0,0,0,24.832-11.461Z" transform="translate(0.001 17.5)" fill="#0174B1"/>
</svg>
