<svg xmlns="http://www.w3.org/2000/svg" width="27.5" height="16.5" viewBox="0 0 27.5 16.5">
  <path id="Path_130087" data-name="Path 130087" d="M12.991-12.667,1.005-16.35a3.433,3.433,0,0,0-2.011,0l-11.986,3.682a1.012,1.012,0,0,0,0,1.959l2.09.642a3.386,3.386,0,0,0-.768,2.015,1.357,1.357,0,0,0-.705,1.176,1.35,1.35,0,0,0,.6,1.1l-1.1,4.936A.687.687,0,0,0-12.206,0h2.411a.687.687,0,0,0,.671-.837l-1.1-4.936a1.35,1.35,0,0,0,.6-1.1A1.355,1.355,0,0,0-10.3-8.03a2.027,2.027,0,0,1,.889-1.578l8.4,2.582A3.436,3.436,0,0,0,1-7.025l11.986-3.682A1.012,1.012,0,0,0,12.991-12.667ZM1.409-5.711a4.81,4.81,0,0,1-2.818,0L-7.641-7.625-8.25-2.75C-8.25-1.231-4.556,0,0,0S8.25-1.231,8.25-2.75L7.641-7.626Z" transform="translate(13.75 16.5)" fill="#0174B1"/>
</svg>
