<svg xmlns="http://www.w3.org/2000/svg" width="24.75" height="22" viewBox="0 0 24.75 22">
  <path id="Path_130085" data-name="Path 130085" d="M8.25-11H3.339l-4.516-7.9a.761.761,0,0,0-.6-.346H-4.589a.687.687,0,0,0-.661.876L-3.143-11h-4.42l-1.856-2.475a.688.688,0,0,0-.55-.275h-1.718a.687.687,0,0,0-.667.854L-11-8.25-12.354-3.6a.687.687,0,0,0,.667.854h1.718a.687.687,0,0,0,.55-.275L-7.563-5.5h4.42L-5.25,1.873a.688.688,0,0,0,.661.877h2.814a.688.688,0,0,0,.6-.346L3.339-5.5H8.25c1.519,0,4.125-1.231,4.125-2.75S9.769-11,8.25-11Z" transform="translate(12.375 19.25)" fill="#0174B1"/>
</svg>
