<svg id="noun_sell_61546" xmlns="http://www.w3.org/2000/svg" width="23.918" height="24.027" viewBox="0 0 23.918 24.027">
  <path id="Path_28996" data-name="Path 28996" d="M5,4.4v7.213a2.411,2.411,0,0,0,2.4,2.4H19.426a2.411,2.411,0,0,0,2.4-2.4V4.4a2.411,2.411,0,0,0-2.4-2.4H7.4A2.411,2.411,0,0,0,5,4.4Zm12.021,1.2H9.809V4.4h7.213Z" transform="translate(-1.467 -2)" fill="#0174B1"/>
  <path id="Path_28997" data-name="Path 28997" d="M25.782,14.326a2.251,2.251,0,0,0-1.322-.6c-.721-.12-4.568-.6-5.049-.721a3.976,3.976,0,0,0-2.645.962,19.271,19.271,0,0,1-2.284,1.322c.12.12.721.12.721.12h.12a2.283,2.283,0,0,1,2.284,2.284v.24a2.283,2.283,0,0,1-2.284,2.284H12.8c-2.164,0-4.208-2.164-4.208-2.164a15.294,15.294,0,0,0,4.208.962h2.4a1.2,1.2,0,0,0,1.2-1.2h0a1.186,1.186,0,0,0-1.082-1.2,5.567,5.567,0,0,1-3.246-1.2,31.634,31.634,0,0,0-2.765-1.923C6.788,12.042,2.1,15.047,2.1,15.047L5.226,21.9a4.393,4.393,0,0,1,3.727-.12c1.443.6,2.284,1.082,3.727,1.563,2.044.721,2.765.6,4.087-.361,1.2-.842,6.972-5.41,7.814-6.011C25.782,15.889,26.383,15.047,25.782,14.326Z" transform="translate(-2.1 0.22)" fill="#0174B1"/>
</svg>
