<svg xmlns="http://www.w3.org/2000/svg" width="26.724" height="26.725" viewBox="0 0 26.724 26.725">
  <path id="tools" d="M26.106,20.652l-6.112-6.112a3.875,3.875,0,0,0-4.457-.725L9.973,8.251V5.01L3.293,0-.047,3.34l5.01,6.681H8.2l5.564,5.564a3.884,3.884,0,0,0,.725,4.457L20.6,26.153a1.94,1.94,0,0,0,2.75,0l2.75-2.75a1.95,1.95,0,0,0,0-2.75Zm-8.841-8.909a5.491,5.491,0,0,1,3.909,1.618l1.013,1.013a7.388,7.388,0,0,0,2.286-1.54A7.506,7.506,0,0,0,26.45,5.7.625.625,0,0,0,25.4,5.412L21.518,9.3l-3.544-.59-.59-3.544,3.883-3.883a.63.63,0,0,0-.3-1.054A7.518,7.518,0,0,0,13.841,2.2,7.4,7.4,0,0,0,11.69,7.61l4.285,4.285a5.686,5.686,0,0,1,1.289-.151Zm-5.423,4.28L8.883,13.064.929,21.023a3.34,3.34,0,1,0,4.723,4.723L12.1,19.3a5.6,5.6,0,0,1-.261-3.272ZM3.293,24.634a1.253,1.253,0,1,1,1.253-1.253A1.256,1.256,0,0,1,3.293,24.634Z" transform="translate(0.05)" fill="#0174B1"/>
</svg>
