<svg xmlns="http://www.w3.org/2000/svg" width="30.002" height="23.998" viewBox="0 0 30.002 23.998">
  <path id="Path_130076" data-name="Path 130076" d="M13.073,2.977a.562.562,0,0,0,.7-.384l6.4-22.041a.563.563,0,0,0-.384-.7l-2.859-.83a.563.563,0,0,0-.7.384L9.83,1.448a.563.563,0,0,0,.384.7ZM7.73-2.283,9.769-4.458a.563.563,0,0,0-.038-.806L5.484-9l4.247-3.736a.559.559,0,0,0,.038-.806L7.73-15.717a.563.563,0,0,0-.8-.023L.178-9.412a.559.559,0,0,0,0,.82L6.933-2.259A.559.559,0,0,0,7.73-2.283Zm15.337.028,6.755-6.333a.559.559,0,0,0,0-.82l-6.755-6.337a.568.568,0,0,0-.8.023l-2.039,2.175a.563.563,0,0,0,.038.806L24.516-9,20.269-5.264a.559.559,0,0,0-.038.806L22.27-2.283A.563.563,0,0,0,23.067-2.255Z" transform="translate(0.001 20.998)" fill="#0174B1"/>
</svg>
