<svg xmlns="http://www.w3.org/2000/svg" width="22" height="22" viewBox="0 0 22 22">
  <path id="Path_130084" data-name="Path 130084" d="M10.7-10.684l-.972-.972a1.031,1.031,0,0,0-1.458,0l-.243.243L3.163-16.274l.243-.243a1.031,1.031,0,0,0,0-1.458l-.972-.972a1.031,1.031,0,0,0-1.458,0L-4.372-13.6a1.031,1.031,0,0,0,0,1.458l.972.972a1.031,1.031,0,0,0,1.458,0l.243-.243L0-9.711-3.479-6.229l-.243-.243a1.375,1.375,0,0,0-1.945,0l-4.93,4.93A1.375,1.375,0,0,0-10.6.4l1.945,1.945a1.375,1.375,0,0,0,1.945,0l4.93-4.93a1.375,1.375,0,0,0,0-1.945l-.243-.243L1.461-8.253l1.7,1.7-.243.243a1.031,1.031,0,0,0,0,1.458l.972.972a1.031,1.031,0,0,0,1.458,0L10.7-9.225A1.031,1.031,0,0,0,10.7-10.684Z" transform="translate(11 19.25)" fill="#0174B1"/>
</svg>
