<svg xmlns="http://www.w3.org/2000/svg" width="22" height="16.5" viewBox="0 0 22 16.5">
  <path id="Path_130077" data-name="Path 130077" d="M14.3-5.5h1.65a.591.591,0,0,0,.55-.55v-5.775a.591.591,0,0,0-.55-.55H14.3a.591.591,0,0,0-.55.55V-6.05A.591.591,0,0,0,14.3-5.5Zm4.125,0h1.65a.591.591,0,0,0,.55-.55v-9.9a.591.591,0,0,0-.55-.55h-1.65a.591.591,0,0,0-.55.55v9.9A.591.591,0,0,0,18.425-5.5ZM6.05-5.5H7.7a.591.591,0,0,0,.55-.55V-9.075a.591.591,0,0,0-.55-.55H6.05a.591.591,0,0,0-.55.55V-6.05A.591.591,0,0,0,6.05-5.5Zm4.125,0h1.65a.591.591,0,0,0,.55-.55v-8.525a.591.591,0,0,0-.55-.55h-1.65a.591.591,0,0,0-.55.55V-6.05A.591.591,0,0,0,10.175-5.5ZM21.312-2.75H2.75V-15.812a.687.687,0,0,0-.687-.687H.687A.687.687,0,0,0,0-15.812V-1.375A1.375,1.375,0,0,0,1.375,0H21.312A.687.687,0,0,0,22-.687V-2.062A.687.687,0,0,0,21.312-2.75Z" transform="translate(0 16.5)" fill="#0174B1"/>
</svg>
