<svg xmlns="http://www.w3.org/2000/svg" width="24.75" height="19.25" viewBox="0 0 24.75 19.25">
  <path id="Path_130078" data-name="Path 130078" d="M1.375-11.687A1.375,1.375,0,0,0,0-10.312v4.125A1.375,1.375,0,0,0,1.375-4.812a1.353,1.353,0,0,0,1.142-.654l4.6,1.388A4.072,4.072,0,0,0,6.875-2.75,4.129,4.129,0,0,0,11,1.375a4.121,4.121,0,0,0,3.975-3.081L20.625,0V-16.5L2.517-11.034A1.353,1.353,0,0,0,1.375-11.687Zm7.7,8.2L13.009-2.3A2.063,2.063,0,0,1,11-.687,2.065,2.065,0,0,1,8.937-2.75,2.043,2.043,0,0,1,9.079-3.486ZM24.062-17.875H22.687a.687.687,0,0,0-.687.687V.687a.687.687,0,0,0,.687.687h1.375A.687.687,0,0,0,24.75.687V-17.187A.687.687,0,0,0,24.062-17.875Z" transform="translate(0 17.875)" fill="#0174B1"/>
</svg>
