<svg xmlns="http://www.w3.org/2000/svg" width="26.724" height="20.043" viewBox="0 0 26.724 20.043">
  <path id="concierge-bell" d="M15.032,67.473v-.968h.835a.835.835,0,0,0,.835-.835v-.835A.835.835,0,0,0,15.867,64H10.857a.835.835,0,0,0-.835.835v.835a.835.835,0,0,0,.835.835h.835v.968A11.685,11.685,0,0,0,1.67,79.032H25.054A11.685,11.685,0,0,0,15.032,67.473ZM25.889,80.7H.835A.835.835,0,0,0,0,81.538v1.67a.835.835,0,0,0,.835.835H25.889a.835.835,0,0,0,.835-.835v-1.67A.835.835,0,0,0,25.889,80.7Z" transform="translate(0 -64)" fill="#0174B1"/>
</svg>
