<svg xmlns="http://www.w3.org/2000/svg" width="22" height="22" viewBox="0 0 22 22">
  <path id="Path_130081" data-name="Path 130081" d="M8.25-15.125h5.5l2.037-3.056a.807.807,0,0,0,.116-.382.688.688,0,0,0-.687-.687H6.786a.688.688,0,0,0-.687.687.807.807,0,0,0,.116.382Zm5.5,1.375H8.25C-.446-8.791,0-2.207,0-1.375A4.449,4.449,0,0,0,4.717,2.75H17.284A4.449,4.449,0,0,0,22-1.375C22-2.191,22.4-8.819,13.75-13.75Zm-2,11.945v.745a.374.374,0,0,1-.373.37h-.749a.374.374,0,0,1-.373-.37v-.752a3.19,3.19,0,0,1-1.468-.523.414.414,0,0,1-.144-.291.42.42,0,0,1,.115-.267l.552-.518a.443.443,0,0,1,.257-.1.45.45,0,0,1,.216.066,1.353,1.353,0,0,0,.6.172h1.314a.584.584,0,0,0,.552-.611.6.6,0,0,0-.412-.587L9.728-5.1A2.1,2.1,0,0,1,8.25-7.1a2.073,2.073,0,0,1,2-2.087v-.751a.374.374,0,0,1,.373-.37h.751a.374.374,0,0,1,.373.37v.754a3.187,3.187,0,0,1,1.468.523.415.415,0,0,1,.143.291.42.42,0,0,1-.115.267l-.547.524a.443.443,0,0,1-.257.1.45.45,0,0,1-.216-.067,1.356,1.356,0,0,0-.6-.172H10.309a.584.584,0,0,0-.552.611.6.6,0,0,0,.411.588l2.105.625A2.1,2.1,0,0,1,13.751-3.89,2.079,2.079,0,0,1,11.748-1.8Z" transform="translate(0 19.25)" fill="#0174B1"/>
</svg>
