<svg xmlns="http://www.w3.org/2000/svg" width="16.5" height="22" viewBox="0 0 16.5 22">
  <path id="Path_130086" data-name="Path 130086" d="M8.005-2.987,4.573-6.875H5.889a.976.976,0,0,0,.893-.561A.947.947,0,0,0,6.641-8.47L3.284-12.375H4.525a.974.974,0,0,0,.9-.585.956.956,0,0,0-.182-1.035L.5-19.042a.708.708,0,0,0-1,0L-5.24-13.994a.957.957,0,0,0-.182,1.035.974.974,0,0,0,.9.585h1.241L-6.641-8.469a.949.949,0,0,0-.141,1.033.976.976,0,0,0,.893.561h1.316L-8.005-2.987a.95.95,0,0,0-.153,1.042,1,1,0,0,0,.9.569h5.881V-.324l-1.3,2.08a.688.688,0,0,0,.615,1H2.062a.688.688,0,0,0,.615-1l-1.3-2.08V-1.375H7.256a1,1,0,0,0,.9-.569A.95.95,0,0,0,8.005-2.987Z" transform="translate(8.25 19.25)" fill="#0174B1"/>
</svg>
