<svg id="Group_194102" data-name="Group 194102" xmlns="http://www.w3.org/2000/svg" xmlns:xlink="http://www.w3.org/1999/xlink" width="26.724" height="16.816" viewBox="0 0 26.724 16.816">
  <defs>
    <clipPath id="clip-path">
      <rect id="Rectangle_64656" data-name="Rectangle 64656" width="26.724" height="16.817" fill="#0174B1"/>
    </clipPath>
  </defs>
  <g id="Group_184044" data-name="Group 184044" clip-path="url(#clip-path)">
    <path id="Path_127650" data-name="Path 127650" d="M85.856,102.2a1.173,1.173,0,0,0-.919-1.96c.4-.863-.778-2-1.339-1.676.5-.583-.4-2.175-1.4-1.851.088-1.054-.808-1.68-1.586-1.112a7.205,7.205,0,0,0-.916.988,7.841,7.841,0,0,0-.679,1.205c-.339.97.386,1.83,1.289,1.522-.082,1.164,1.487,1.836,1.9,1.172-.167.682,1.058,1.752,1.731,1.137a1.056,1.056,0,0,0,1.926.574" transform="translate(-71.897 -85.847)" fill="#0174B1"/>
    <path id="Path_127651" data-name="Path 127651" d="M112.9,20.478c-.591,1.007-.926,3.783.43,3.905s1.079-1.523,1.648-2.112a1.8,1.8,0,0,1,1.874-.336,48.852,48.852,0,0,1,5.213,4.838,7.324,7.324,0,0,1,1.949-1.6l-2.626-4.88c-.515,0-1.356-1.515-3.479-1.785a5.135,5.135,0,0,0-2.8.114,6.561,6.561,0,0,0-2.21,1.851" transform="translate(-102.376 -16.575)" fill="#0174B1"/>
    <path id="Path_127652" data-name="Path 127652" d="M56.443,27.781a7.271,7.271,0,0,1,1.955,1.6,4.344,4.344,0,0,0,.417.507l.04-.062.016-.025.019-.022a6.384,6.384,0,0,1,1-1.067,1.444,1.444,0,0,1,.849-.294,1.336,1.336,0,0,1,1.033.512,1.735,1.735,0,0,1,.351.78,1.938,1.938,0,0,1,1.444,1.28,1.893,1.893,0,0,1,.128.615,2.041,2.041,0,0,1,1.059.949,1.788,1.788,0,0,1,.219.754A1.9,1.9,0,0,1,66.045,34.4a1.6,1.6,0,0,1-.269,1.566c1.551.63,1.81-.5,1.607-.96.715.426,1.663-.8,1.4-1.392.481.524,1.809-.409,1.546-1.457a1.045,1.045,0,0,0,.933-1.654,2.43,2.43,0,0,0-.222-.3L70.8,29.92a48.983,48.983,0,0,0-5.124-4.761,1.079,1.079,0,0,0-.411-.063,1.329,1.329,0,0,0-.945.336,1.9,1.9,0,0,0-.272.673c-.179.628-.45,1.577-1.534,1.577-.056,0-.115,0-.175-.008a1.347,1.347,0,0,1-1.12-.878,5.1,5.1,0,0,1,.359-3.787,5.252,5.252,0,0,1,1.5-1.48c-1.632.48-2.719,1.374-4.012,1.374Z" transform="translate(-51.415 -19.375)" fill="#0174B1"/>
    <path id="Path_127735" data-name="Path 127735" d="M.073.13,8.547-.282l-.232,4.5-8.474.412Z" transform="translate(-0.149 7.543) rotate(-60)" fill="#0174B1"/>
    <path id="Path_127736" data-name="Path 127736" d="M.13.073l4.5-.232L4.221,8.315l-4.5.232Z" transform="translate(18.91 2.658) rotate(-30)" fill="#0174B1"/>
  </g>
</svg>
