<svg xmlns="http://www.w3.org/2000/svg" width="19.25" height="22" viewBox="0 0 19.25 22">
  <path id="Path_130083" data-name="Path 130083" d="M7.562-19.25H-7.563a2.115,2.115,0,0,0-2.062,2.062V.687A2.115,2.115,0,0,0-7.563,2.75H7.562A2.115,2.115,0,0,0,9.625.687V-17.187A2.115,2.115,0,0,0,7.562-19.25Zm0,19.937H-7.563v-11H7.562Zm0-13.062H-7.563v-4.812H7.562ZM-4.95-5.5H-3.3a.591.591,0,0,0,.55-.55V-7.7a.591.591,0,0,0-.55-.55H-4.95a.591.591,0,0,0-.55.55v1.65A.591.591,0,0,0-4.95-5.5ZM3.3-1.375H4.95a.591.591,0,0,0,.55-.55V-7.7a.591.591,0,0,0-.55-.55H3.3a.591.591,0,0,0-.55.55v5.775A.591.591,0,0,0,3.3-1.375Zm-8.25,0H-3.3a.591.591,0,0,0,.55-.55v-1.65a.591.591,0,0,0-.55-.55H-4.95a.591.591,0,0,0-.55.55v1.65A.591.591,0,0,0-4.95-1.375ZM-.825-5.5H.825a.591.591,0,0,0,.55-.55V-7.7a.591.591,0,0,0-.55-.55H-.825a.591.591,0,0,0-.55.55v1.65A.591.591,0,0,0-.825-5.5Zm0,4.125H.825a.591.591,0,0,0,.55-.55v-1.65a.591.591,0,0,0-.55-.55H-.825a.591.591,0,0,0-.55.55v1.65A.591.591,0,0,0-.825-1.375Z" transform="translate(9.625 19.25)" fill="#0174B1"/>
</svg>
