<svg id="Group_194101" data-name="Group 194101" xmlns="http://www.w3.org/2000/svg" xmlns:xlink="http://www.w3.org/1999/xlink" width="21.947" height="25.029" viewBox="0 0 21.947 25.029">
  <defs>
    <clipPath id="clip-path">
      <rect id="Rectangle_64653" data-name="Rectangle 64653" width="21.948" height="25.029" fill="#0174B1"/>
    </clipPath>
  </defs>
  <g id="Group_184042" data-name="Group 184042" clip-path="url(#clip-path)">
    <path id="Path_127647" data-name="Path 127647" d="M20.656,7.842a2.775,2.775,0,0,0-.218-.848c.009-.05.02-.111.03-.184.237-1.5.4-4.04-1.034-4.736A3.813,3.813,0,0,0,17.611.29a3.846,3.846,0,0,0-1.95-.263,3.578,3.578,0,0,0-2.832.83,4.008,4.008,0,0,0-.944,1.219,1.743,1.743,0,0,0-.538.425c-.853,1.021-.674,3.133-.492,4.3.012.074.024.139.034.191a2.546,2.546,0,0,0,.472,2.835l.009.011c.052.052.1.1.138.134.3,1.512,1.492,4.109,4.15,4.133h.035c2.639,0,3.823-2.608,4.119-4.133a2.566,2.566,0,0,0,.844-2.136M19.109,9.358,19.1,9.37a.407.407,0,0,0-.054.049.349.349,0,0,0-.026.035.326.326,0,0,0-.029.038.49.49,0,0,0-.023.045c0,.012-.012.023-.016.035a.4.4,0,0,0-.018.073.068.068,0,0,0,0,.016h0a6.322,6.322,0,0,1-.633,1.785,2.954,2.954,0,0,1-2.6,1.735h-.027C13,13.159,12.417,9.8,12.394,9.659c-.005-.02-.011-.038-.016-.058s0-.011-.006-.017a.338.338,0,0,0-.027-.064c0-.006-.006-.013-.009-.02a.572.572,0,0,0-.037-.052l-.018-.025a.382.382,0,0,0-.041-.038c-.008-.006-.014-.015-.021-.021A1.7,1.7,0,0,1,11.6,8.324a1.789,1.789,0,0,1,.191-1.068.466.466,0,0,0,.035-.31s-.021-.088-.047-.237c1.146-.234,4.426-1,5.92-2.4,0,0,.8,1.776,1.888,2.107-.011.081-.023.161-.035.24-.031.189-.053.3-.054.3a.474.474,0,0,0,.038.29,1.973,1.973,0,0,1,.2.677,1.67,1.67,0,0,1-.624,1.427" transform="translate(-4.687 0)" fill="#0174B1"/>
    <path id="Path_127648" data-name="Path 127648" d="M19.852,27.977l-.124.115-.162.15-.419.392H17.489l-.482-.392-.185-.15-.141-.115.086-.1a.369.369,0,0,1,.276-.124h2.446a.379.379,0,0,1,.277.123Z" transform="translate(-7.34 -12.213)" fill="#0174B1"/>
    <path id="Path_127649" data-name="Path 127649" d="M21.948,34.592a.721.721,0,0,1,0,.1c0,.041-.006.081-.01.119a.983.983,0,0,1-.02.1v0c0,.036-.017.067-.021.1a.832.832,0,0,1-.033.1c0,.012-.01.029-.014.044s-.027.062-.041.091-.029.062-.041.088a.8.8,0,0,1-.05.085.749.749,0,0,1-.057.088.646.646,0,0,1-.054.073.937.937,0,0,1-.063.076.637.637,0,0,1-.067.069c-.017.02-.036.038-.054.057l-.1.086c-.035.025-.068.052-.108.074-.023.017-.049.032-.073.047s-.068.038-.1.056-.056.025-.083.04a2.1,2.1,0,0,1-.259.079l-.09.021a1.907,1.907,0,0,1-.279.024H10.95v0H1.583c-.022,0-.048,0-.071,0s-.032,0-.049,0a.117.117,0,0,0-.024,0H1.424A.138.138,0,0,0,1.38,36.2a.731.731,0,0,1-.083-.018l-.017,0a.019.019,0,0,1-.007,0c-.006,0-.01,0-.012,0-.029-.006-.052-.014-.081-.02s-.043-.012-.062-.018c0,0-.009,0-.012,0s0,0-.006-.005a.259.259,0,0,1-.046-.018c-.045-.015-.09-.036-.137-.055a.152.152,0,0,0-.044-.022.139.139,0,0,0-.035-.018.236.236,0,0,0-.056-.035l0,0a.066.066,0,0,0-.016-.009c-.038-.026-.073-.05-.111-.073l0-.006-.009-.009a1.482,1.482,0,0,1-.155-.132c0-.006-.012-.011-.013-.014a.376.376,0,0,1-.053-.054l0-.008s-.008-.006-.009-.011a.27.27,0,0,1-.036-.043c-.006,0-.01-.011-.014-.012s-.02-.026-.029-.041A.257.257,0,0,0,.3,35.523c-.008-.013-.012-.02-.018-.032a.325.325,0,0,1-.043-.065c-.013-.021-.026-.044-.036-.062s-.015-.027-.022-.041-.014-.027-.02-.043-.013-.027-.018-.043a.189.189,0,0,1-.011-.021.7.7,0,0,1-.026-.07.408.408,0,0,1-.023-.068s-.006-.006-.006-.007a.281.281,0,0,0-.012-.044.191.191,0,0,0-.014-.045c0-.012,0-.029-.009-.043a.075.075,0,0,0,0-.018c0-.011-.006-.015-.007-.024a.236.236,0,0,1-.008-.047c0-.015,0-.032,0-.043a.133.133,0,0,1,0-.041s0-.009,0-.017,0-.024,0-.034A1.155,1.155,0,0,1,0,34.592c0-.007,0-.021,0-.03a1.441,1.441,0,0,1,.011-.16l.222-1.949.326-2.86c.007-.047.013-.094.022-.141a1.222,1.222,0,0,1,.034-.158c0-.006,0-.006,0-.013s.011-.043.017-.062,0-.012,0-.02a.01.01,0,0,1,.006-.01c.007-.022.011-.047.018-.069a.279.279,0,0,1,.012-.04,1.1,1.1,0,0,1,.043-.118.021.021,0,0,1,.007-.015c0-.006,0-.008,0-.016A.07.07,0,0,1,.738,28.9a.057.057,0,0,1,.006-.018c.012-.036.031-.071.046-.109.012-.018.021-.041.033-.064s.018-.032.029-.053c.021-.041.047-.083.071-.126.014-.024.026-.047.041-.074.01-.01.016-.026.026-.036.026-.04.053-.078.08-.117s.067-.091.1-.132.077-.088.116-.13a.048.048,0,0,0,.017-.011c.018-.02.035-.04.055-.058l.044-.038a.273.273,0,0,0,.027-.029c.008,0,.009-.006.014-.012l.062-.055a.082.082,0,0,0,.027-.02.085.085,0,0,0,.022-.018c.005,0,.009-.008.014-.014s.012-.011.016-.012c.034-.026.066-.048.1-.071s.047-.035.073-.05l.062-.041h.007c.005,0,.014-.008.021-.014.023-.012.044-.027.064-.039s.047-.026.072-.038.06-.027.091-.045a.042.042,0,0,1,.023-.008.212.212,0,0,1,.038-.017s0,0,.009-.007a.162.162,0,0,0,.02-.006L3.8,26.8l1.082-.42.621-.245,1.721-.669a.134.134,0,0,1,.179.094l1.44,5.4,1.091-2.438.175-.392h1.729l.159.392,1,2.438,1.445-5.434a.14.14,0,0,1,.186-.088l2.022.783.306.119.354.137.829.323,1.655.647a2.615,2.615,0,0,1,.746.492v0a2.67,2.67,0,0,1,.839,1.654l.328,2.857.05.437.173,1.518a1.835,1.835,0,0,1,.011.186" transform="translate(0 -11.188)" fill="#0174B1"/>
  </g>
</svg>
