<svg xmlns="http://www.w3.org/2000/svg" width="24.74" height="23.668" viewBox="0 0 24.74 23.668">
  <g id="Group_194103" data-name="Group 194103" transform="translate(-9668.992 16622.584)">
    <path id="Subtraction_3" data-name="Subtraction 3" d="M9.158,21.423A1.277,1.277,0,0,1,8.43,21.2,18.562,18.562,0,0,1,1.463,11.51,29.292,29.292,0,0,1,0,3.187,1.3,1.3,0,0,1,1.076,1.879L12.28,0a3.97,3.97,0,0,0,.311,3.472L9.556,5.847a.51.51,0,0,0-.087.715l.1.122a.507.507,0,0,0,.4.2.5.5,0,0,0,.313-.108l3.037-2.378.022-.018a3.92,3.92,0,0,0,1.111.707A3.947,3.947,0,0,0,16,5.4a3.985,3.985,0,0,0,.966-.118c1.382,4.362,4.623,8.3,6.432,10.257a1.289,1.289,0,0,1-.6,2.118L9.507,21.375A1.312,1.312,0,0,1,9.158,21.423Zm8.236-10.336a.677.677,0,0,0-.182.025L6.754,14.05a.679.679,0,0,0-.47.837l.056.2a.679.679,0,0,0,.837.471l10.459-2.938a.679.679,0,0,0,.47-.837l-.056-.2A.682.682,0,0,0,17.395,11.087ZM15.44,7.763a.657.657,0,0,0-.182.025L4.8,10.725a.68.68,0,0,0-.47.837l.056.2a.681.681,0,0,0,.653.495.664.664,0,0,0,.184-.025L15.68,9.293a.681.681,0,0,0,.47-.837l-.055-.2A.684.684,0,0,0,15.44,7.763Z" transform="translate(9669.492 -16620.838)" fill="#0174B1"/>
    <path id="Subtraction_3_-_Outline" data-name="Subtraction 3 - Outline" d="M9.158,21.923a1.775,1.775,0,0,1-1.012-.313A19.049,19.049,0,0,1,.99,11.67,29.806,29.806,0,0,1-.5,3.2,1.8,1.8,0,0,1,.994,1.386L13.058-.638l-.311.816a3.47,3.47,0,0,0,.271,3.035l.229.379L9.864,6.241s0,0,0,.008a.007.007,0,0,0,0,.006l.095.121s0,0,.009,0l0,0L13.009,4l.334-.293.33.3a3.423,3.423,0,0,0,.97.618A3.452,3.452,0,0,0,16,4.9a3.485,3.485,0,0,0,.844-.1l.456-.114.142.448c1.353,4.27,4.542,8.141,6.323,10.069a1.789,1.789,0,0,1-.831,2.938L9.642,21.856A1.816,1.816,0,0,1,9.158,21.923ZM11.59.623,1.159,2.372a.794.794,0,0,0-.659.8A28.777,28.777,0,0,0,1.937,11.35a18.074,18.074,0,0,0,6.776,9.436.788.788,0,0,0,.661.107l13.288-3.721a.789.789,0,0,0,.367-1.3,30.858,30.858,0,0,1-6.4-10.023A4.526,4.526,0,0,1,16,5.9a4.444,4.444,0,0,1-1.744-.353,4.387,4.387,0,0,1-.923-.527L10.588,7.165a.988.988,0,0,1-.621.214,1,1,0,0,1-.8-.387l-.095-.121a1.01,1.01,0,0,1,.173-1.419l2.7-2.115q-.042-.087-.079-.176A4.506,4.506,0,0,1,11.59.623Zm-4.6,15.458a1.183,1.183,0,0,1-1.136-.861l-.056-.2a1.179,1.179,0,0,1,.816-1.454l10.459-2.938a1.177,1.177,0,0,1,.318-.044h0a1.183,1.183,0,0,1,1.136.86l.056.2a1.179,1.179,0,0,1-.816,1.453L7.312,16.037A1.18,1.18,0,0,1,6.994,16.081Zm10.4-4.494a.177.177,0,0,0-.048.007L6.889,14.531a.179.179,0,0,0-.124.22l.056.2a.182.182,0,0,0,.221.125L17.5,12.137a.179.179,0,0,0,.124-.22l-.056-.2a.182.182,0,0,0-.173-.13ZM5.037,12.755A1.183,1.183,0,0,1,3.9,11.9l-.056-.2a1.181,1.181,0,0,1,.816-1.454L15.123,7.306a1.151,1.151,0,0,1,.317-.044,1.186,1.186,0,0,1,1.136.858l.056.2a1.181,1.181,0,0,1-.815,1.451L5.356,12.711A1.157,1.157,0,0,1,5.037,12.755Zm10.4-4.493a.157.157,0,0,0-.043.006L4.933,11.207a.179.179,0,0,0-.123.221l.055.2a.182.182,0,0,0,.172.131.167.167,0,0,0,.045-.006L15.545,8.812a.174.174,0,0,0,.106-.084.172.172,0,0,0,.018-.134l-.056-.2A.183.183,0,0,0,15.44,8.263Z" transform="translate(9669.492 -16620.838)" fill="rgba(0,0,0,0)"/>
    <path id="Path_127655" data-name="Path 127655" d="M1819.215.931a3.164,3.164,0,0,0-4.474,0,3.184,3.184,0,0,0-.5.655,3.165,3.165,0,0,0,2.741,4.746,3.188,3.188,0,0,0,.74-.086,3.165,3.165,0,0,0,1.5-5.315" transform="translate(7868.513 -16622.588)" fill="#0174B1"/>
  </g>
</svg>
