<svg xmlns="http://www.w3.org/2000/svg" width="23.737" height="27.129" viewBox="0 0 23.737 27.129">
  <path id="flask" d="M23.174,21.38l-6.21-9.988v-8h.424A1.269,1.269,0,0,0,18.66,2.119V1.272A1.269,1.269,0,0,0,17.388,0H6.367A1.269,1.269,0,0,0,5.1,1.272v.848A1.269,1.269,0,0,0,6.367,3.391h.424v8L.581,21.38a3.763,3.763,0,0,0,3.184,5.749H19.99A3.762,3.762,0,0,0,23.174,21.38ZM7.316,16.955,9.87,12.844a1.679,1.679,0,0,0,.307-.975V3.391h3.391v8.478a1.705,1.705,0,0,0,.307.975l2.554,4.112Z" transform="translate(-0.01)" fill="#0174B1"/>
</svg>
