<svg id="Group_184019" data-name="Group 184019" xmlns="http://www.w3.org/2000/svg" xmlns:xlink="http://www.w3.org/1999/xlink" width="23.729" height="24.697" viewBox="0 0 23.729 24.697">
  <defs>
    <clipPath id="clip-path">
      <rect id="Rectangle_64634" data-name="Rectangle 64634" width="23.728" height="24.697" fill="#0174B1"/>
    </clipPath>
  </defs>
  <g id="Group_184018" data-name="Group 184018" clip-path="url(#clip-path)">
    <path id="Path_127560" data-name="Path 127560" d="M21.8,12.516a1.954,1.954,0,1,0-2.622,1.837v3.27a5.738,5.738,0,0,1-11.477,0,.67.67,0,0,0-.011-.115.67.67,0,0,0,.011-.115V14.145a5.49,5.49,0,0,0,2.765-1.205,6.881,6.881,0,0,0,2.136-3.105,28.465,28.465,0,0,0,1.029-3.188c.623-2.442.62-4.081-.008-5.01a1.838,1.838,0,0,0-1.31-.807A1.142,1.142,0,0,0,11.5.257L9.953.014A1.144,1.144,0,1,0,9.6,2.274l1.544.243a1.142,1.142,0,0,0,1.026-.362.5.5,0,0,1,.355.228c.179.265.521,1.178-.176,3.92a27.563,27.563,0,0,1-.981,3.042l-.005.015-.006.015a4.747,4.747,0,0,1-4.315,3.477A4.731,4.731,0,0,1,2.761,9.481a.675.675,0,0,0-.025-.075,27.566,27.566,0,0,1-.981-3.042c-.7-2.742-.355-3.655-.176-3.92a.511.511,0,0,1,.384-.233,1.141,1.141,0,0,0,.972.307L4.48,2.274A1.144,1.144,0,0,0,4.124.014L2.58.257A1.143,1.143,0,0,0,1.724.9a1.831,1.831,0,0,0-1.25.8c-.628.929-.631,2.568-.008,5.01A28.647,28.647,0,0,0,1.478,9.853c0,.012.007.025.011.037a6.176,6.176,0,0,0,4.882,4.254v3.248a.67.67,0,0,0,.011.115.67.67,0,0,0-.011.115,7.073,7.073,0,0,0,14.146,0v-3.27A1.955,1.955,0,0,0,21.8,12.516" transform="translate(0 0)" fill="#0174B1"/>
    <path id="Path_127561" data-name="Path 127561" d="M422.629,226.469a3.879,3.879,0,0,0-1.125,7.591v-1.431a2.544,2.544,0,1,1,2.25,0v1.431a3.879,3.879,0,0,0-1.125-7.591" transform="translate(-402.779 -217.832)" fill="#0174B1"/>
  </g>
</svg>
