<svg xmlns="http://www.w3.org/2000/svg" width="23.733" height="23.732" viewBox="0 0 23.733 23.732">
  <path id="palette" d="M9.482.2A11.8,11.8,0,0,0,.253,9.4c-1.715,8.668,6.1,15.13,12,14.217a2.926,2.926,0,0,0,1.97-4.251A3.136,3.136,0,0,1,17.042,14.8h3.694a3.033,3.033,0,0,0,3.008-3.027A11.876,11.876,0,0,0,9.482.2ZM4.462,14.8a1.483,1.483,0,1,1,1.483-1.483A1.482,1.482,0,0,1,4.462,14.8ZM5.945,8.867A1.483,1.483,0,1,1,7.428,7.383,1.482,1.482,0,0,1,5.945,8.867ZM11.878,5.9a1.483,1.483,0,1,1,1.483-1.483A1.482,1.482,0,0,1,11.878,5.9Zm5.933,2.967A1.483,1.483,0,1,1,19.3,7.383,1.482,1.482,0,0,1,17.812,8.867Z" transform="translate(-0.012 0.035)" fill="#0174B1"/>
</svg>
