<svg xmlns="http://www.w3.org/2000/svg" width="20.402" height="21.313" viewBox="0 0 20.402 21.313">
  <path id="Path_130088" data-name="Path 130088" d="M9.943-5.685,8.112-6.742a8.277,8.277,0,0,0,0-3.016l1.83-1.057a.519.519,0,0,0,.236-.6,10.7,10.7,0,0,0-2.35-4.065.517.517,0,0,0-.636-.1l-1.83,1.057A8.109,8.109,0,0,0,2.75-16.032v-2.11a.515.515,0,0,0-.4-.5,10.8,10.8,0,0,0-4.692,0,.515.515,0,0,0-.4.5v2.114a8.365,8.365,0,0,0-2.612,1.508l-1.826-1.057a.511.511,0,0,0-.636.1,10.637,10.637,0,0,0-2.35,4.065.514.514,0,0,0,.236.6l1.83,1.057a8.277,8.277,0,0,0,0,3.016L-9.939-5.68a.519.519,0,0,0-.236.6,10.7,10.7,0,0,0,2.35,4.065.517.517,0,0,0,.636.1l1.83-1.057A8.109,8.109,0,0,0-2.746-.464V1.65a.515.515,0,0,0,.4.5,10.8,10.8,0,0,0,4.692,0,.515.515,0,0,0,.4-.5V-.464A8.365,8.365,0,0,0,5.367-1.972L7.2-.915a.511.511,0,0,0,.636-.1,10.637,10.637,0,0,0,2.35-4.065A.531.531,0,0,0,9.943-5.685ZM0-4.812A3.442,3.442,0,0,1-3.438-8.25,3.442,3.442,0,0,1,0-11.687,3.442,3.442,0,0,1,3.437-8.25,3.442,3.442,0,0,1,0-4.812Z" transform="translate(10.199 18.902)" fill="#0174B1"/>
</svg>
