<svg xmlns="http://www.w3.org/2000/svg" width="23.75" height="19" viewBox="0 0 23.75 19">
  <path id="Path_130082" data-name="Path 130082" d="M23.156-3.562h-.594V-7.574a1.781,1.781,0,0,0-.523-1.258l-3.707-3.707a1.781,1.781,0,0,0-1.258-.523H15.437v-1.781a1.782,1.782,0,0,0-1.781-1.781H1.781A1.782,1.782,0,0,0,0-14.844V-2.969A1.782,1.782,0,0,0,1.781-1.187h.594A3.563,3.563,0,0,0,5.937,2.375,3.563,3.563,0,0,0,9.5-1.187h4.75a3.563,3.563,0,0,0,3.562,3.562,3.563,3.563,0,0,0,3.562-3.562h1.781a.6.6,0,0,0,.594-.594V-2.969A.6.6,0,0,0,23.156-3.562ZM5.937.594A1.782,1.782,0,0,1,4.156-1.187,1.782,1.782,0,0,1,5.937-2.969,1.782,1.782,0,0,1,7.719-1.187,1.782,1.782,0,0,1,5.937.594Zm11.875,0a1.782,1.782,0,0,1-1.781-1.781,1.782,1.782,0,0,1,1.781-1.781,1.782,1.782,0,0,1,1.781,1.781A1.782,1.782,0,0,1,17.812.594Zm2.969-7.719H15.437v-4.156h1.637l3.707,3.707Z" transform="translate(0 16.625)" fill="#0174B1"/>
</svg>
