<svg xmlns="http://www.w3.org/2000/svg" width="26.724" height="21.381" viewBox="0 0 26.724 21.381">
  <path id="user-cog" d="M25.495,15.589a4.9,4.9,0,0,0,0-1.779l1.077-.622a.3.3,0,0,0,.138-.355,6.267,6.267,0,0,0-1.386-2.4.3.3,0,0,0-.376-.058L23.87,11a4.9,4.9,0,0,0-1.541-.889V8.866a.3.3,0,0,0-.238-.3,6.3,6.3,0,0,0-2.765,0,.3.3,0,0,0-.238.3V10.11A4.9,4.9,0,0,0,17.548,11l-1.077-.622a.305.305,0,0,0-.376.058,6.267,6.267,0,0,0-1.386,2.4.308.308,0,0,0,.138.355l1.077.622a4.9,4.9,0,0,0,0,1.779l-1.077.622a.3.3,0,0,0-.138.355,6.3,6.3,0,0,0,1.386,2.4.3.3,0,0,0,.376.058l1.077-.622a4.9,4.9,0,0,0,1.541.889v1.244a.3.3,0,0,0,.238.3,6.3,6.3,0,0,0,2.765,0,.3.3,0,0,0,.238-.3V19.289A4.9,4.9,0,0,0,23.87,18.4l1.077.622a.305.305,0,0,0,.376-.058,6.267,6.267,0,0,0,1.386-2.4.308.308,0,0,0-.138-.355Zm-4.782,1.136A2.025,2.025,0,1,1,22.739,14.7,2.027,2.027,0,0,1,20.713,16.725ZM9.354,10.691A5.345,5.345,0,1,0,4.009,5.345,5.345,5.345,0,0,0,9.354,10.691Zm8.4,9.459c-.1-.05-.192-.109-.284-.163l-.33.192a1.638,1.638,0,0,1-2.025-.3,7.615,7.615,0,0,1-1.679-2.907,1.633,1.633,0,0,1,.748-1.908l.33-.192q-.006-.163,0-.326l-.33-.192a1.631,1.631,0,0,1-.748-1.908c.038-.121.092-.242.134-.363-.159-.013-.313-.05-.476-.05h-.7a7.269,7.269,0,0,1-6.089,0h-.7A5.614,5.614,0,0,0,0,17.64v1.737a2.005,2.005,0,0,0,2,2H16.7a2,2,0,0,0,1.136-.355,1.626,1.626,0,0,1-.084-.493Z" fill="#0174B1"/>
</svg>
