<svg xmlns="http://www.w3.org/2000/svg" xmlns:xlink="http://www.w3.org/1999/xlink" width="24.659" height="19.506" viewBox="0 0 24.659 19.506">
  <defs>
    <clipPath id="clip-path">
      <rect id="Rectangle_64665" data-name="Rectangle 64665" width="24.659" height="19.506" fill="#0174B1"/>
    </clipPath>
  </defs>
  <g id="Group_194104" data-name="Group 194104" transform="translate(1.926)">
    <g id="Group_184059" data-name="Group 184059" transform="translate(-1.926)" clip-path="url(#clip-path)">
      <path id="Path_127686" data-name="Path 127686" d="M21.8,8.209V6.025C21.988,3.081,20.439-.016,17.078,0a6.718,6.718,0,0,0-6.189,3.71A6.836,6.836,0,0,0,4.624.131C.793.2-.6,4.253.232,7.468c.956,3.712,5.524,7.505,8.732,10.323a19.958,19.958,0,0,0,2.093,1.714,19.839,19.839,0,0,0,2.058-1.758c1.155-1.06,2.493-2.255,3.764-3.528v1.77H21.8V13.132H24.66V8.209Zm1.633,3.7H20.579v2.857H18.1V11.908H15.246V9.433H18.1V6.576h2.476V9.433h2.857Z" transform="translate(0 0)" fill="#0174B1"/>
    </g>
  </g>
</svg>
